<svg id="Слой_1" data-name="Слой 1" xmlns="http://www.w3.org/2000/svg" xmlns:xlink="http://www.w3.org/1999/xlink" width="87.14" height="87" viewBox="0 0 87.14 87">
  <defs>
    <style>
      .cls-1 {
        fill: #fff;
      }

      .cls-2, .cls-3, .cls-4, .cls-5, .cls-6, .cls-7 {
        fill-rule: evenodd;
      }

      .cls-2 {
        fill: url(#GradientFill_1);
      }

      .cls-3 {
        fill: url(#GradientFill_1-2);
      }

      .cls-4 {
        fill: url(#GradientFill_1-3);
      }

      .cls-5 {
        fill: url(#GradientFill_1-4);
      }

      .cls-6 {
        fill: url(#GradientFill_1-5);
      }

      .cls-7 {
        fill: url(#GradientFill_1-6);
      }
    </style>
    <linearGradient id="GradientFill_1" data-name="GradientFill 1" x1="20.67" y1="67.12" x2="20.67" y2="60.27" gradientUnits="userSpaceOnUse">
      <stop offset="0" stop-color="#f7af3d"/>
      <stop offset="1" stop-color="#ffd40d"/>
    </linearGradient>
    <linearGradient id="GradientFill_1-2" x1="34.68" y1="67.12" x2="34.68" y2="60.27" xlink:href="#GradientFill_1"/>
    <linearGradient id="GradientFill_1-3" x1="72.03" y1="67.12" x2="72.03" y2="60.27" xlink:href="#GradientFill_1"/>
    <linearGradient id="GradientFill_1-4" x1="49.86" y1="71.79" x2="49.86" y2="20.58" xlink:href="#GradientFill_1"/>
    <linearGradient id="GradientFill_1-5" x1="18.71" y1="52.4" x2="18.71" y2="15.24" xlink:href="#GradientFill_1"/>
    <linearGradient id="GradientFill_1-6" x1="14.44" y1="42.69" x2="14.44" y2="20.67" xlink:href="#GradientFill_1"/>
  </defs>
  <title>ben1_2</title>
  <rect class="cls-1" width="87" height="87"/>
  <g>
    <g>
      <path class="cls-2" d="M23,62.6a1.1,1.1,0,0,0-1.1,1.1,1.24,1.24,0,1,1-1.24-1.24,1.09,1.09,0,1,0,0-2.19,3.43,3.43,0,1,0,3.43,3.43A1.09,1.09,0,0,0,23,62.6Z" transform="translate(0)"/>
      <path class="cls-3" d="M37,62.6a1.1,1.1,0,0,0-1.1,1.09,1.24,1.24,0,1,1-1.24-1.24,1.09,1.09,0,0,0,0-2.19,3.43,3.43,0,1,0,3.43,3.43A1.09,1.09,0,0,0,37,62.6Z" transform="translate(0)"/>
      <path class="cls-4" d="M74.37,62.6a1.09,1.09,0,0,0-1.09,1.1A1.24,1.24,0,1,1,72,62.45a1.09,1.09,0,0,0,0-2.19,3.43,3.43,0,1,0,3.43,3.43A1.1,1.1,0,0,0,74.37,62.6Z" transform="translate(0)"/>
      <path class="cls-5" d="M87.14,47.33v-.28l0-.07v0L82.38,34.78A5.8,5.8,0,0,0,77,31.08H67.36a3.42,3.42,0,0,0-2.57,1.17H62.62V25.46a4.57,4.57,0,0,0-1.35-3.25L60,20.9a1.09,1.09,0,0,0-1.55,1.55l1.31,1.31a2.39,2.39,0,0,1,.71,1.7v6.79H59.12V29.84a2.26,2.26,0,0,0-2.26-2.26H38.44A20.59,20.59,0,0,1,39,29.77H56.86a.07.07,0,0,1,.07.07V55.6H14.84a.07.07,0,0,1-.07-.07v-1.4a20.6,20.6,0,0,1-2.19-.55v1.94a2.26,2.26,0,0,0,2.26,2.26h.31a8.09,8.09,0,1,0,12.53,10,8.09,8.09,0,0,0,15-3h1.39v.07a3.43,3.43,0,0,0,3.43,3.43h7A3.43,3.43,0,0,0,58,64.86v-.07H64a8.1,8.1,0,0,0,16,0h4.82a2.26,2.26,0,0,0,2.26-2.26V47.33Zm-2.19,9.44H83.71a.08.08,0,0,1-.07-.07V55.52a.08.08,0,0,1,.07-.07h1.24v1.31ZM84,45.09H73.2a2.41,2.41,0,0,1-2.41-2.41V37.94H81.25L84,45.09ZM63.94,34.44s0,0,0,.07V55.6H59.12V34.44ZM29.15,57.79a8.16,8.16,0,0,0-1.47,1.85,8.19,8.19,0,0,0-1.48-1.85ZM20.67,69.6a5.91,5.91,0,1,1,5.91-5.91,5.92,5.92,0,0,1-5.91,5.91Zm14,0a5.91,5.91,0,1,1,5.91-5.91,5.92,5.92,0,0,1-5.91,5.91Zm21.08-4.74a1.24,1.24,0,0,1-1.24,1.24h-7a1.24,1.24,0,0,1-1.24-1.24V62.53a1.24,1.24,0,0,1,1.24-1.24h7a1.24,1.24,0,0,1,1.24,1.24v2.34ZM54.52,59.1h-7a3.43,3.43,0,0,0-3.43,3.43v.07H42.7a8.09,8.09,0,0,0-2.49-4.81h26.3A8.08,8.08,0,0,0,64,62.6H58v-.07a3.43,3.43,0,0,0-3.43-3.43ZM72,69.6a5.91,5.91,0,1,1,5.91-5.91A5.91,5.91,0,0,1,72,69.6Zm12.84-7H80.06a8.11,8.11,0,0,0-8-7H66.13V34.51a1.24,1.24,0,0,1,1.24-1.24H77a3.6,3.6,0,0,1,3.34,2.29l.07.19H69.7a1.1,1.1,0,0,0-1.09,1.1v5.84a4.6,4.6,0,0,0,4.6,4.6H84.84l.11.28v5.71H83.71a2.26,2.26,0,0,0-2.26,2.26v1.17A2.26,2.26,0,0,0,83.71,59h1.24v3.58A.07.07,0,0,1,84.87,62.6Z" transform="translate(0)"/>
    </g>
    <path class="cls-6" d="M18.71,17.44a16.38,16.38,0,1,0,11.58,4.8,16.34,16.34,0,0,0-11.58-4.8ZM5.58,20.69A18.58,18.58,0,1,1,.14,33.82,18.52,18.52,0,0,1,5.58,20.69Z" transform="translate(0)"/>
    <path class="cls-7" d="M17.64,21.76a1.09,1.09,0,1,1,2.19,0l0,13.95a1.09,1.09,0,0,1-.51.93L10.77,42.5a1.09,1.09,0,0,1-1.23-1.8l8.09-5.56Z" transform="translate(0)"/>
  </g>
</svg>
