<svg id="Слой_1" data-name="Слой 1" xmlns="http://www.w3.org/2000/svg" xmlns:xlink="http://www.w3.org/1999/xlink" viewBox="0 0 626.18 670.8"><defs><style>.cls-1,.cls-2,.cls-3,.cls-4,.cls-5,.cls-6,.cls-7{fill-rule:evenodd;}.cls-1{fill:url(#GradientFill_1);}.cls-2{fill:url(#GradientFill_1-2);}.cls-3{fill:url(#GradientFill_1-3);}.cls-4{fill:url(#GradientFill_1-4);}.cls-5{fill:url(#GradientFill_1-5);}.cls-6{fill:url(#GradientFill_1-6);}.cls-7{fill:url(#GradientFill_1-7);}</style><linearGradient id="GradientFill_1" x1="13.21" y1="463.48" x2="13.21" y2="428.93" gradientUnits="userSpaceOnUse"><stop offset="0" stop-color="#f7af3d"/><stop offset="1" stop-color="#ffd40d"/></linearGradient><linearGradient id="GradientFill_1-2" x1="129.79" y1="463.48" x2="129.79" y2="428.93" xlink:href="#GradientFill_1"/><linearGradient id="GradientFill_1-3" x1="76.72" y1="712.19" x2="76.72" y2="171.39" xlink:href="#GradientFill_1"/><linearGradient id="GradientFill_1-4" x1="323.18" y1="290.53" x2="323.18" y2="199.34" xlink:href="#GradientFill_1"/><linearGradient id="GradientFill_1-5" x1="410.31" y1="290.53" x2="410.31" y2="199.34" xlink:href="#GradientFill_1"/><linearGradient id="GradientFill_1-6" x1="347.92" y1="432.94" x2="347.92" y2="41.38" xlink:href="#GradientFill_1"/><linearGradient id="GradientFill_1-7" x1="324.33" y1="374.4" x2="324.33" y2="108.18" xlink:href="#GradientFill_1"/></defs><title>ben2</title><path class="cls-1" d="M13.22,463.48c10.14,0,18.37-7.74,18.37-17.27s-8.23-17.28-18.37-17.28-18.39,7.73-18.38,17.28S3.06,463.48,13.22,463.48Z" transform="translate(86.57 -41.38)"/><path class="cls-2" d="M148.17,446.2c0-9.55-8.24-17.28-18.38-17.28s-18.38,7.73-18.38,17.28,8.23,17.27,18.38,17.28S148.17,455.73,148.17,446.2Z" transform="translate(86.57 -41.38)"/><path class="cls-3" d="M240,460.19c.32-13.06-3.37-31.23-12.62-40.83l-.89-3.95a214,214,0,0,1-21.21-16.88,14.53,14.53,0,0,1-8.47,5.92c-16,4.67-35.89-10.54-47.44-19.64-1-.85-26-21-74.13-21H71.56c-48.17,0-73.09,20.14-73.92,20.82-21.54,17-64.5,39.87-59-8.1,5.58-5.15,98.2-87.34,226.61-26.86A210.6,210.6,0,0,1,149,315.79c-95.27-33.21-170.52,2.57-206,26-.57-39.71,4.38-68,4.37-68,6.95-32.67,38.64-53.65,66.38-57.48a329.39,329.39,0,0,0,46.67-10.23,59.43,59.43,0,0,1,23.75-.36c9.41,3.27,23.33,6.71,48,10.55q2.33.36,4.71.88a211.66,211.66,0,0,1,4.35-24.85q-2.61-.55-5.17-.95c-20.79-3.25-32.92-6.05-41.09-8.64-5.2-14.89-36.86-15.23-42.86-.51a305,305,0,0,1-41.87,9.13C-25,196.25-67.46,222.5-77.32,269c-.27,1.49-6.29,35.55-4.61,82.83a23.87,23.87,0,0,0-1.39,4.85c-17.23,73,37.13,94.7,96.81,47.62C13.66,404.11,33,389,71.56,389c16.16-1.6,49.14,4.93,61.95,15.41C149,416.68,178.88,436,201,429.75c.52,30.73-5,55.16-16,85.27-23.07,22-54.61,29.19-85.68,29.2-6-7.57-16.83-12.69-29.39-12.68-18.89,0-34.21,11.47-34.21,25.66S51.09,582.87,70,582.87c12.18,0,22.83-4.83,28.88-12l.54,0c26.1,0,47.3-4.46,64.64-11.5C144.17,592.2,114.07,621,69.7,621H66.8C-35.38,621-55.8,467.49-56,465.94c-2.17-17.4-28.65-14.11-26.48,3.29.71,5.82,15.34,116.61,85.6,160.64l.13.81q3.25,27.25-3.88,41.23l-.35.77Q-7.07,683.74-22.16,686l-.63.11-.81.11a13,13,0,0,0-11.12,14.68A13,13,0,0,0-20,712.06l1-.13.8-.09q28.07-4.25,40.29-27c.23-.35.44-.73.64-1.11q8.32-16.32,7.57-41.42a122.59,122.59,0,0,0,36.57,5.37h2.9A122.81,122.81,0,0,0,113.21,640q-1.22,26.67,7.49,43.73c.19.39.41.75.63,1.11q12.23,22.74,40.3,27l.8.09.95.13a13,13,0,1,0,3.57-25.8l-.81-.11-.63-.11q-15.09-2.28-21.21-13.36l-.35-.77q-7.13-14-3.88-41.23l.19-1.15c.18-1.43.38-2.84.59-4.25,34.33-24.27,55.52-64,68.09-97.24C236.27,497.36,239.89,461.24,240,460.19Z" transform="translate(86.57 -41.38)"/><path class="cls-4" d="M360.55,290.53H285.82a46.82,46.82,0,0,1,7.8-20.82q6.5-9.76,24.43-23,11-8.14,14-12.36a13.79,13.79,0,0,0,3.06-8,9.33,9.33,0,0,0-3-7,11.55,11.55,0,0,0-15.41.09q-3,3-4.06,10.58l-24.95-2q1.46-10.52,5.38-16.42a25,25,0,0,1,11-9.05q7.13-3.15,19.73-3.15,13.15,0,20.46,3a24.9,24.9,0,0,1,11.49,9.2,24.29,24.29,0,0,1,4.2,13.92,28.44,28.44,0,0,1-4.8,15.65q-4.8,7.47-17.46,16.39-7.52,5.19-10.06,7.28t-6,5.44h38.9Z" transform="translate(86.57 -41.38)"/><path class="cls-5" d="M416.51,254.45V226.24l-24,28.21Zm0,19.33H371.14V253.28l45.37-53.94h21.71v55.1h11.26v19.33H438.22v16.76H416.51Z" transform="translate(86.57 -41.38)"/><path class="cls-6" d="M528.44,230.11a11.18,11.18,0,0,0-11.18,11.18c0,93.35-76,169.29-169.37,169.29S178.58,334.64,178.58,241.29,254.53,72,347.89,72A169.22,169.22,0,0,1,435,96.12l15-26.5,15.67,64.74-79.09,25a11.18,11.18,0,1,0,6.68,21.34l80.07-25.31a20.55,20.55,0,0,0,14.37-25L469.48,55c-1.92-7-8.85-12.58-16.75-13.48-7.24-.91-13.84,2.26-17.23,8.28l-9.33,16.61a191.51,191.51,0,0,0-78.28-16.79c-105.69,0-191.66,86-191.66,191.65s86,191.65,191.66,191.65,191.73-86,191.73-191.65A11.18,11.18,0,0,0,528.44,230.11Z" transform="translate(86.57 -41.38)"/><path class="cls-7" d="M347.9,130.54a110.72,110.72,0,0,1,41,7.88l30-9.64a132.62,132.62,0,0,0-71.07-20.6c-73.4,0-133.12,59.72-133.12,133.11S274.5,374.4,347.9,374.4a131.9,131.9,0,0,0,81.67-28,11.18,11.18,0,1,0-13.72-17.65A109.72,109.72,0,0,1,347.9,352a110.75,110.75,0,1,1,0-221.51Z" transform="translate(86.57 -41.38)"/></svg>