<svg id="Слой_1" data-name="Слой 1" xmlns="http://www.w3.org/2000/svg" xmlns:xlink="http://www.w3.org/1999/xlink" viewBox="0 0 572.9 585.55"><defs><style>.cls-1{fill:url(#GradientFill_1);}.cls-2{fill:url(#GradientFill_1-2);}.cls-3{fill:url(#GradientFill_1-3);}.cls-4{fill:url(#GradientFill_1-4);}.cls-5{fill:url(#GradientFill_1-5);}.cls-6{fill:url(#GradientFill_1-6);}.cls-7{fill:url(#GradientFill_1-7);}.cls-8{fill:url(#GradientFill_1-8);}.cls-9{fill:url(#GradientFill_1-9);}.cls-10{fill:url(#GradientFill_1-10);}.cls-11{fill:url(#GradientFill_1-11);}.cls-12{fill:url(#GradientFill_1-12);}.cls-13{fill:url(#GradientFill_1-13);}.cls-14,.cls-16,.cls-17,.cls-18,.cls-19{fill-rule:evenodd;}.cls-14{fill:url(#GradientFill_1-14);}.cls-15{fill:url(#GradientFill_1-15);}.cls-16{fill:url(#GradientFill_1-16);}.cls-17{fill:url(#GradientFill_1-17);}.cls-18{fill:url(#GradientFill_1-18);}.cls-19{fill:url(#GradientFill_1-19);}</style><linearGradient id="GradientFill_1" x1="121.91" y1="416.01" x2="121.91" y2="374.22" gradientUnits="userSpaceOnUse"><stop offset="0" stop-color="#f7af3d"/><stop offset="1" stop-color="#ffd40d"/></linearGradient><linearGradient id="GradientFill_1-2" x1="205.25" y1="416.01" x2="205.25" y2="374.22" xlink:href="#GradientFill_1"/><linearGradient id="GradientFill_1-3" x1="288.6" y1="416.01" x2="288.6" y2="374.22" xlink:href="#GradientFill_1"/><linearGradient id="GradientFill_1-4" x1="371.95" y1="416.01" x2="371.95" y2="374.22" xlink:href="#GradientFill_1"/><linearGradient id="GradientFill_1-5" x1="455.3" y1="416.01" x2="455.3" y2="374.22" xlink:href="#GradientFill_1"/><linearGradient id="GradientFill_1-6" x1="205.25" y1="332.59" x2="205.25" y2="290.79" xlink:href="#GradientFill_1"/><linearGradient id="GradientFill_1-7" x1="288.6" y1="332.59" x2="288.6" y2="290.79" xlink:href="#GradientFill_1"/><linearGradient id="GradientFill_1-8" x1="371.95" y1="332.59" x2="371.95" y2="290.79" xlink:href="#GradientFill_1"/><linearGradient id="GradientFill_1-9" x1="455.3" y1="332.59" x2="455.3" y2="290.79" xlink:href="#GradientFill_1"/><linearGradient id="GradientFill_1-10" x1="121.91" y1="499.44" x2="121.91" y2="457.64" xlink:href="#GradientFill_1"/><linearGradient id="GradientFill_1-11" x1="205.25" y1="499.44" x2="205.25" y2="457.64" xlink:href="#GradientFill_1"/><linearGradient id="GradientFill_1-12" x1="288.6" y1="499.44" x2="288.6" y2="457.64" xlink:href="#GradientFill_1"/><linearGradient id="GradientFill_1-13" x1="371.95" y1="499.44" x2="371.95" y2="457.64" xlink:href="#GradientFill_1"/><linearGradient id="GradientFill_1-14" x1="219.9" y1="669.52" x2="219.9" y2="139.28" xlink:href="#GradientFill_1"/><linearGradient id="GradientFill_1-15" x1="284.79" y1="233.17" x2="284.79" y2="207.25" xlink:href="#GradientFill_1"/><linearGradient id="GradientFill_1-16" x1="82.73" y1="243.19" x2="82.73" y2="83.97" xlink:href="#GradientFill_1"/><linearGradient id="GradientFill_1-17" x1="219.9" y1="243.19" x2="219.9" y2="83.97" xlink:href="#GradientFill_1"/><linearGradient id="GradientFill_1-18" x1="355.36" y1="243.19" x2="355.36" y2="83.97" xlink:href="#GradientFill_1"/><linearGradient id="GradientFill_1-19" x1="354.25" y1="545.04" x2="354.25" y2="318.92" xlink:href="#GradientFill_1"/></defs><title>ben3</title><rect class="cls-1" x="101.01" y="374.22" width="41.8" height="41.8"/><rect class="cls-2" x="184.35" y="374.22" width="41.8" height="41.8"/><rect class="cls-3" x="267.7" y="374.22" width="41.8" height="41.8"/><rect class="cls-4" x="351.05" y="374.22" width="41.81" height="41.8"/><rect class="cls-5" x="434.4" y="374.22" width="41.8" height="41.8"/><rect class="cls-6" x="184.35" y="290.79" width="41.8" height="41.8"/><rect class="cls-7" x="267.7" y="290.79" width="41.8" height="41.8"/><rect class="cls-8" x="351.05" y="290.79" width="41.81" height="41.8"/><rect class="cls-9" x="434.4" y="290.79" width="41.8" height="41.8"/><rect class="cls-10" x="101.01" y="457.64" width="41.8" height="41.8"/><rect class="cls-11" x="184.35" y="457.64" width="41.8" height="41.8"/><rect class="cls-12" x="267.7" y="457.64" width="41.8" height="41.8"/><rect class="cls-13" x="351.05" y="457.64" width="41.81" height="41.8"/><path class="cls-14" d="M-8.23,139.28h104v25.92h-104a32.28,32.28,0,0,0-22.87,9.47l-.05.05a32.28,32.28,0,0,0-9.47,22.87V611.2a32.28,32.28,0,0,0,9.47,22.87l.05.05a32.28,32.28,0,0,0,22.87,9.47H448a32.28,32.28,0,0,0,22.87-9.47l.05-.05a32.28,32.28,0,0,0,9.47-22.87V197.6A32.28,32.28,0,0,0,471,174.73l-.05-.05A32.28,32.28,0,0,0,448,165.21H410.2V139.28H448a58.16,58.16,0,0,1,41.14,17.12l0,0,0,0a58.14,58.14,0,0,1,17.12,41.14V611.2a58.16,58.16,0,0,1-17.12,41.14l0,0,0,0A58.16,58.16,0,0,1,448,669.52H-8.23A58.14,58.14,0,0,1-49.38,652.4l0,0,0,0A58.16,58.16,0,0,1-66.55,611.2V197.6a58.14,58.14,0,0,1,17.12-41.14l0,0,0,0A58.14,58.14,0,0,1-8.23,139.28Zm376.59,25.92V139.28H274.74v25.92Zm-135.45,0V139.28H137.56v25.92Z" transform="translate(66.55 -83.97)"/><rect class="cls-15" x="15.17" y="207.25" width="539.25" height="25.92"/><path class="cls-16" d="M69.76,96.93a13,13,0,1,1,25.92,0v133.3a13,13,0,0,1-25.92,0Z" transform="translate(66.55 -83.97)"/><path class="cls-17" d="M206.94,96.93a13,13,0,1,1,25.92,0v133.3a13,13,0,0,1-25.92,0Z" transform="translate(66.55 -83.97)"/><path class="cls-18" d="M342.4,96.93a13,13,0,1,1,25.92,0v133.3a13,13,0,0,1-25.92,0Z" transform="translate(66.55 -83.97)"/><path class="cls-19" d="M447.29,519.94a73.86,73.86,0,0,0,9.62-9.86c23.61-28.61,17.87-67.34,0-98.48a133.09,133.09,0,0,0-26.19-32.71c-2-1.73-4-3.27-6-4.85a135.85,135.85,0,0,0-32.38-19.14,129.77,129.77,0,0,0-49.38-10.09,114.63,114.63,0,0,0-47.47,10.09,104.69,104.69,0,0,0-16.11,8.91c1.68-3.09,3.5-6,5.23-8.91,4.62-7.79,9.28-15.26,13.91-22,4.9-7.14-1.73-14-8.55-14a9.34,9.34,0,0,0-7.93,4.3c-2.24,3.21-4.43,6.57-6.63,10-4.43,6.85-8.72,14.13-12.83,21.65-2.18,4-4.29,8-6.3,12.14-1.12,2.33-2.25,4.61-3.32,7-19.13,42.09-27.16,89,3.32,123.53a97.64,97.64,0,0,0,19,16.52s.08,0,.13.09a188.28,188.28,0,0,0,19.51,11.24c20.73,10.42,44.15,17.42,67.54,19.14,3.63.24,7.28.47,10.92.47s7.42-.19,11.1-.47c19.83-1.59,39-7.56,55.55-19.14a87.94,87.94,0,0,0,7.27-5.5Zm-70.9,6.91a131.8,131.8,0,0,1-18.15-1.41C334,522.13,310,512.85,291.88,502.3a86.75,86.75,0,0,1-16.48-12.42,64.36,64.36,0,0,1-19.13-36.41,89,89,0,0,1,0-27.25c2.06-13.91,6.71-28.1,12.88-41.86a10.65,10.65,0,0,0,6.25,2.79,6.89,6.89,0,0,0,1,.24,9.61,9.61,0,0,0,6.26-2.43A83.51,83.51,0,0,1,299.29,374,85.62,85.62,0,0,1,338.17,365,114.29,114.29,0,0,1,381.53,374c61.6,25.25,105.94,97.63,41.87,140.1-9.19,6.07-19.69,9.57-30.71,11.29A103.47,103.47,0,0,1,376.39,526.85Z" transform="translate(66.55 -83.97)"/></svg>