<svg id="Слой_1" data-name="Слой 1" xmlns="http://www.w3.org/2000/svg" xmlns:xlink="http://www.w3.org/1999/xlink" viewBox="0 0 600.11 614.58"><defs><style>.cls-1,.cls-10,.cls-11,.cls-12,.cls-6,.cls-7,.cls-8,.cls-9{fill-rule:evenodd;}.cls-1{fill:url(#GradientFill_1);}.cls-2{fill:url(#GradientFill_1-2);}.cls-3{fill:url(#GradientFill_1-3);}.cls-4{fill:url(#GradientFill_1-4);}.cls-5{fill:url(#GradientFill_1-5);}.cls-6{fill:url(#GradientFill_1-6);}.cls-7{fill:url(#GradientFill_1-7);}.cls-8{fill:url(#GradientFill_1-8);}.cls-9{fill:url(#GradientFill_1-9);}.cls-10{fill:url(#GradientFill_1-10);}.cls-11{fill:url(#GradientFill_1-11);}.cls-12{fill:url(#GradientFill_1-12);}</style><linearGradient id="GradientFill_1" x1="141.39" y1="684.31" x2="141.39" y2="152.37" gradientUnits="userSpaceOnUse"><stop offset="0" stop-color="#f7af3d"/><stop offset="1" stop-color="#ffd40d"/></linearGradient><linearGradient id="GradientFill_1-2" x1="97.82" y1="423.7" x2="97.82" y2="389.92" xlink:href="#GradientFill_1"/><linearGradient id="GradientFill_1-3" x1="97.82" y1="345.83" x2="97.82" y2="312.05" xlink:href="#GradientFill_1"/><linearGradient id="GradientFill_1-4" x1="97.82" y1="267.94" x2="97.82" y2="234.17" xlink:href="#GradientFill_1"/><linearGradient id="GradientFill_1-5" x1="97.82" y1="501.59" x2="97.82" y2="467.81" xlink:href="#GradientFill_1"/><linearGradient id="GradientFill_1-6" x1="137.77" y1="493.43" x2="137.77" y2="459.65" xlink:href="#GradientFill_1"/><linearGradient id="GradientFill_1-7" x1="132.6" y1="415.56" x2="132.6" y2="381.78" xlink:href="#GradientFill_1"/><linearGradient id="GradientFill_1-8" x1="151.85" y1="337.67" x2="151.85" y2="303.9" xlink:href="#GradientFill_1"/><linearGradient id="GradientFill_1-9" x1="169.54" y1="571.32" x2="169.54" y2="537.54" xlink:href="#GradientFill_1"/><linearGradient id="GradientFill_1-10" x1="370.03" y1="571.85" x2="370.03" y2="271.05" xlink:href="#GradientFill_1"/><linearGradient id="GradientFill_1-11" x1="372.28" y1="482.65" x2="372.28" y2="361.81" xlink:href="#GradientFill_1"/><linearGradient id="GradientFill_1-12" x1="140.98" y1="229.19" x2="140.98" y2="69.73" xlink:href="#GradientFill_1"/></defs><title>ben4</title><path class="cls-1" d="M-26.91,152.37H-.71v25.92h-26.2a26.78,26.78,0,0,0-18.94,7.89,26.78,26.78,0,0,0-7.89,18.94V631.55a26.78,26.78,0,0,0,7.89,18.94,26.78,26.78,0,0,0,18.94,7.89H309.7a26.95,26.95,0,0,0,26.84-26.84v-29.4a184.41,184.41,0,0,0,25.92,2.9v26.5a52.88,52.88,0,0,1-52.76,52.76H-26.91a52.61,52.61,0,0,1-37.27-15.49,52.61,52.61,0,0,1-15.49-37.27V205.13a52.61,52.61,0,0,1,15.49-37.27,52.61,52.61,0,0,1,37.27-15.49Zm363.45,88.37a184.41,184.41,0,0,1,25.92-2.9V205.13a52.88,52.88,0,0,0-52.76-52.76H283.42v25.92H309.7a26.95,26.95,0,0,1,26.84,26.84Z" transform="translate(79.67 -69.73)"/><rect class="cls-2" x="80.93" y="389.92" width="33.78" height="33.78"/><rect class="cls-3" x="80.93" y="312.05" width="33.78" height="33.78"/><rect class="cls-4" x="80.93" y="234.17" width="33.78" height="33.78"/><rect class="cls-5" x="80.93" y="467.81" width="33.78" height="33.78"/><path class="cls-6" d="M73.68,459.65v33.78H201.86a181.76,181.76,0,0,1-10.73-33.78Z" transform="translate(79.67 -69.73)"/><path class="cls-7" d="M73.68,381.78v33.78H187.35a182.85,182.85,0,0,1,4.16-33.78Z" transform="translate(79.67 -69.73)"/><path class="cls-8" d="M73.68,303.9v33.78H207.55A184,184,0,0,1,230,303.9Z" transform="translate(79.67 -69.73)"/><path class="cls-9" d="M228.73,537.54h-155v33.78H265.39A184.33,184.33,0,0,1,228.73,537.54Z" transform="translate(79.67 -69.73)"/><path class="cls-10" d="M370,304.83A116.62,116.62,0,1,0,486.66,421.45,116.76,116.76,0,0,0,370,304.83Zm0,267c-82.94,0-150.41-67.47-150.41-150.4S287.1,271,370,271s150.4,67.47,150.4,150.4S453,571.85,370,571.85Z" transform="translate(79.67 -69.73)"/><path class="cls-11" d="M362.75,481.71,301.56,432a4.18,4.18,0,0,1-.61-5.86l16-19.77a4.18,4.18,0,0,1,5.86-.61l34.34,27.89a4.15,4.15,0,0,0,5.92-.68l53.82-69.57a4.17,4.17,0,0,1,5.84-.74l20.14,15.57a4.15,4.15,0,0,1,.75,5.85l-75,96.93a4.15,4.15,0,0,1-5.91.68Z" transform="translate(79.67 -69.73)"/><path class="cls-12" d="M56.63,203.27H225.33V148.6H174.92l1.37-14.18.1-1.58v-1.72a35.47,35.47,0,1,0-70.95,0v1.72l.16,1.68,1.23,14.08H56.63v54.67Zm181.65,25.92H30.71V122.68h49.4A61.24,61.24,0,0,1,97.52,87.76l.05-.05a61.38,61.38,0,0,1,104.18,35h49.5V229.19Z" transform="translate(79.67 -69.73)"/></svg>