<svg id="Слой_1" data-name="Слой 1" xmlns="http://www.w3.org/2000/svg" xmlns:xlink="http://www.w3.org/1999/xlink" viewBox="0 0 528.03 528.03"><defs><style>.cls-1,.cls-2{fill-rule:evenodd;}.cls-1{fill:url(#GradientFill_1);}.cls-2{fill:url(#GradientFill_1-2);}</style><linearGradient id="GradientFill_1" x1="220.2" y1="493.12" x2="220.2" y2="259.67" gradientUnits="userSpaceOnUse"><stop offset="0" stop-color="#f7af3d"/><stop offset="1" stop-color="#ffd40d"/></linearGradient><linearGradient id="GradientFill_1-2" x1="220.2" y1="641.17" x2="220.2" y2="113.14" xlink:href="#GradientFill_1"/></defs><title>ben5</title><path class="cls-1" d="M77.56,401.16A15.55,15.55,0,1,1,97.18,377L194,455.47,340.72,265.71a15.55,15.55,0,1,1,24.62,19L208.88,487l-.29.36a15.56,15.56,0,0,1-21.88,2.25Z" transform="translate(43.81 -113.14)"/><path class="cls-2" d="M220.2,113.14A264.11,264.11,0,1,1,33.52,563.84l0,0a263.56,263.56,0,0,1,0-373.32l0,0A262.9,262.9,0,0,1,220.2,113.14Zm91.14,44.06A237.29,237.29,0,0,0,52,208.93h-.05a237.44,237.44,0,0,0,0,336.45H52A237.91,237.91,0,1,0,311.34,157.2Z" transform="translate(43.81 -113.14)"/></svg>