<?xml version="1.0" encoding="utf-8"?>
<!-- Generator: Adobe Illustrator 21.0.0, SVG Export Plug-In . SVG Version: 6.00 Build 0)  -->
<svg version="1.1" id="Слой_1" xmlns="http://www.w3.org/2000/svg" xmlns:xlink="http://www.w3.org/1999/xlink" x="0px" y="0px"
	 viewBox="0 0 87 87" style="enable-background:new 0 0 87 87;" xml:space="preserve">
<style type="text/css">
	.st0{fill:#FFFFFF;}
	.st1{fill:url(#SVGID_1_);}
	.st2{fill:url(#SVGID_2_);}
	.st3{fill:url(#SVGID_3_);}
</style>
<title>ben6</title>
<rect class="st0" width="87" height="87"/>
<g>
	
		<linearGradient id="SVGID_1_" gradientUnits="userSpaceOnUse" x1="43.135" y1="9.8876" x2="43.135" y2="77.0827" gradientTransform="matrix(1 0 0 -1 0 87)">
		<stop  offset="0" style="stop-color:#F7AF3D"/>
		<stop  offset="1" style="stop-color:#FFD40D"/>
	</linearGradient>
	<path class="st1" d="M65,70L65,70c-0.1,0-0.1-0.1-0.2-0.1l0,0l0,0l0,0l0,0h-0.1l0,0l0,0l0,0l0,0l0,0l0,0l0,0l0,0l0,0l0,0l0,0l0,0
		l0,0l0,0l0,0l0,0l0,0l0,0l0,0l0,0l0,0l0,0l0,0l0,0l0,0l0,0l0,0l0,0l0,0l0,0l0,0l0,0l0,0l0,0l0,0c0-0.1,0-0.1-0.1-0.2l0,0l0,0l0,0
		l0,0l0,0l0,0l0,0l0,0l0,0l0,0l0,0l0,0v-0.1L64.8,14l0,0c0-0.2-0.1-0.4-0.3-0.5c-0.2-0.2-0.5-0.3-0.7-0.3l0,0H34.5l0,0
		c-0.3,0-0.5,0.1-0.7,0.3l0,0c-0.2,0.1-0.2,0.3-0.2,0.5l0,0l-0.1,55.4c0,0.1,0,0.1,0,0.2c0,0.7-0.6,1.3-1.3,1.3h-3.1
		c0,0-0.1,0-0.1,0v4.2h39.8v-4.9c0,0-0.1,0-0.1,0h-2.9C65.5,70.2,65.2,70.2,65,70L65,70z M18.2,27.7c0-1.5,0.5-3,1.4-4.2
		c0.7-1,1.7-1.8,2.8-2.4l0,0c0.9-0.4,1.8-0.7,2.7-0.8c0.4-0.1,0.9-0.1,1.3-0.1c0.7,0,1.3,0.6,1.3,1.3c0,0,0,0,0,0
		c0,0.3-0.1,0.7-0.4,0.9c-0.2,0.2-0.6,0.4-0.9,0.4l0,0c-1,0-2,0.3-2.9,0.7c-1.6,0.8-2.6,2.4-2.6,4.1c0.7,0.1,1.5,0.2,2.2,0.5
		c0.9,0.3,1.5,1,1.8,1.9l0,0c0,0.1,0,0.1,0,0.2l0,0c0,0.1,0,0.1,0,0.2l-0.5,11l0,0c0,0.4-0.1,0.7-0.4,0.9c-0.2,0.2-0.6,0.4-0.9,0.4
		h-1.6v14.9l0,0c0,0.3,0,0.6,0,0.9c0,0.3,0.2,0.6,0.4,0.8l0,0c0.1,0.1,0.3,0.2,0.5,0.3l0,0c0.3,0.1,0.6,0.1,0.9,0.1l0,0
		c0.3,0,0.6,0,0.9-0.1l0,0c0.2-0.1,0.4-0.2,0.5-0.3c0.2-0.2,0.3-0.5,0.3-0.8l0,0l0,0l0,0L25,57c0.1-2.6,0.3-8.3,0.3-9.7
		c0-0.5,0.1-1,0.3-1.4c0.2-0.4,0.5-0.8,0.8-1.2l0,0c1-0.8,2.2-1.2,3.4-1.2l0,0c0.3,0,0.6,0,0.8,0V13.3l0,0c0-0.9,0.4-1.8,1.1-2.4
		c0.7-0.7,1.6-1,2.6-1l0,0h29.3l0,0c0.9,0,1.8,0.4,2.5,1c0.7,0.6,1.1,1.5,1.1,2.4l0,0l-0.1,54.3h1.5c0.7,0,1.4,0.3,1.9,0.8
		c0.5,0.5,0.8,1.2,0.8,1.9v5.3l0,0c0,0.4-0.2,0.8-0.5,1.1c-0.3,0.3-0.7,0.5-1.1,0.5H47.9l-20,0l0,0c-0.4,0-0.8-0.2-1.1-0.5
		c-0.3-0.3-0.5-0.7-0.5-1.1l0,0v-5.3l0,0c0-0.7,0.3-1.4,0.8-1.9l0,0c0.5-0.5,1.2-0.8,1.9-0.8h1.5V46.1c-0.4,0-0.8,0-1.2,0.1
		c-0.5,0.1-0.9,0.2-1.3,0.5c-0.1,0.1-0.1,0.2-0.2,0.3c0,0.1-0.1,0.2-0.1,0.4c0,0.6,0,2.1-0.1,3.8c-0.1,3.1-0.2,6.9-0.2,7.3l0,0
		c0,1-0.3,1.9-1,2.7l0,0c-0.4,0.4-0.9,0.8-1.5,1c-0.6,0.2-1.3,0.3-1.9,0.3c-0.6,0-1.2-0.1-1.8-0.3c-0.5-0.2-1-0.5-1.5-0.9l0,0
		c-0.5-0.6-0.9-1.2-1.1-2c-0.1-0.5-0.1-1-0.1-1.5l0,0V42.7h-1.3c-0.3,0-0.6-0.1-0.9-0.3l0,0c-0.2-0.2-0.4-0.5-0.4-0.8l0,0l-1.3-10.8
		v-0.1c0.1-0.8,0.4-1.5,1-2C16.5,28.1,17.3,27.8,18.2,27.7L18.2,27.7L18.2,27.7z M24.8,30L24.8,30z M18.7,40h3.1l0.5-9.4
		c-0.1-0.1-0.2-0.1-0.3-0.2l0,0c-0.7-0.3-1.4-0.4-2.2-0.3h-0.2c-0.3,0-0.6,0-0.9,0.1l0,0c-0.8,0.1-1.1,0.4-1.1,0.5L18.7,40z"/>
	
		<linearGradient id="SVGID_2_" gradientUnits="userSpaceOnUse" x1="48.8755" y1="51.3642" x2="48.8755" y2="72.7588" gradientTransform="matrix(1 0 0 -1 0 87)">
		<stop  offset="0" style="stop-color:#F7AF3D"/>
		<stop  offset="1" style="stop-color:#FFD40D"/>
	</linearGradient>
	<path class="st2" d="M61.7,15.5v18.8c0,0.3-0.1,0.7-0.4,0.9l0,0c-0.2,0.2-0.6,0.4-0.9,0.4h-23c-0.3,0-0.7-0.1-0.9-0.4l0,0
		c-0.3-0.2-0.4-0.6-0.4-0.9V15.5c0-0.7,0.6-1.3,1.3-1.3h23C61.1,14.2,61.7,14.8,61.7,15.5C61.7,15.5,61.7,15.5,61.7,15.5z M38.7,33
		h20.4V16.9H38.7V33z"/>
	
		<linearGradient id="SVGID_3_" gradientUnits="userSpaceOnUse" x1="47.3188" y1="58.9204" x2="47.3188" y2="68.3236" gradientTransform="matrix(1 0 0 -1 0 87)">
		<stop  offset="0" style="stop-color:#F7AF3D"/>
		<stop  offset="1" style="stop-color:#FFD40D"/>
	</linearGradient>
	<path class="st3" d="M46.1,23.6L46.1,23.6c-0.7,1.6-0.1,3.4,1.5,4.2c1.6,0.7,3.4,0.1,4.2-1.5s0.1-3.4-1.5-4.2
		c-0.9-0.4-1.9-0.4-2.7,0l0,0L44.4,19c-0.4-0.4-1.1-0.4-1.5,0c-0.4,0.4-0.4,1.1,0,1.5L46.1,23.6z M48.9,23.9c0.6,0,1,0.5,1,1
		s-0.5,1-1,1c-0.6,0-1-0.5-1-1c0,0,0,0,0,0C47.8,24.4,48.3,23.9,48.9,23.9C48.9,23.9,48.9,23.9,48.9,23.9z"/>
</g>
</svg>
