<svg id="Слой_1" data-name="Слой 1" xmlns="http://www.w3.org/2000/svg" xmlns:xlink="http://www.w3.org/1999/xlink" viewBox="0 0 528.03 528.03"><defs><style>.cls-1,.cls-2,.cls-3,.cls-4,.cls-5,.cls-6{fill-rule:evenodd;}.cls-1{fill:url(#GradientFill_1);}.cls-2{fill:url(#GradientFill_1-2);}.cls-3{fill:url(#GradientFill_1-3);}.cls-4{fill:url(#GradientFill_1-4);}.cls-5{fill:url(#GradientFill_1-5);}.cls-6{fill:url(#GradientFill_1-6);}</style><linearGradient id="GradientFill_1" x1="219.81" y1="528.08" x2="219.81" y2="226.23" gradientUnits="userSpaceOnUse"><stop offset="0" stop-color="#f7af3d"/><stop offset="1" stop-color="#ffd40d"/></linearGradient><linearGradient id="GradientFill_1-2" x1="129.26" y1="363.45" x2="129.26" y2="209.77" xlink:href="#GradientFill_1"/><linearGradient id="GradientFill_1-3" x1="310.35" y1="544.54" x2="310.35" y2="390.86" xlink:href="#GradientFill_1"/><linearGradient id="GradientFill_1-4" x1="129.26" y1="330.53" x2="129.26" y2="242.69" xlink:href="#GradientFill_1"/><linearGradient id="GradientFill_1-5" x1="310.35" y1="511.62" x2="310.35" y2="423.78" xlink:href="#GradientFill_1"/><linearGradient id="GradientFill_1-6" x1="219.81" y1="641.17" x2="219.81" y2="113.14" xlink:href="#GradientFill_1"/></defs><title>ben7</title><path class="cls-1" d="M353.77,228.32a27.39,27.39,0,0,1,8.9,6h0a27.45,27.45,0,0,1,0,38.79h0L115.74,520h0a27.39,27.39,0,0,1-38.81,0h0a27.44,27.44,0,0,1,0-38.78h0L287.54,270.61a11,11,0,0,1,15.53,0h0a11,11,0,0,1,0,15.52h0L92.47,496.75h0a5.51,5.51,0,0,0,1.77,8.93h0a5.53,5.53,0,0,0,2.1.41,5.66,5.66,0,0,0,2.09-.4h0a5.47,5.47,0,0,0,1.77-1.19L347.14,257.56a5.49,5.49,0,0,0,0-7.74,5.54,5.54,0,0,0-1.77-1.2h0a5.71,5.71,0,0,0-4.19,0h0a5.5,5.5,0,0,0-1.77,1.2l-13.06,13.06a11,11,0,0,1-15.54,0h0a11,11,0,0,1,0-15.52h0l13.06-13.05a27.41,27.41,0,0,1,29.89-6Z" transform="translate(44.21 -113.14)"/><path class="cls-2" d="M183.57,340.92a76.68,76.68,0,0,1-108.6,0h0a76.7,76.7,0,0,1,0-108.61h0a76.68,76.68,0,0,1,108.6,0h0a76.68,76.68,0,0,1,0,108.6ZM168,247.84a54.78,54.78,0,1,0,16.08,38.77A54.71,54.71,0,0,0,168,247.84Z" transform="translate(44.21 -113.14)"/><path class="cls-3" d="M256,413.39a76.71,76.71,0,0,1,108.6,0h0A76.8,76.8,0,1,1,256,522h0a76.71,76.71,0,0,1,0-108.61Zm15.52,93.08a54.79,54.79,0,1,0-16.08-38.78A54.71,54.71,0,0,0,271.57,506.47Z" transform="translate(44.21 -113.14)"/><path class="cls-4" d="M160.3,317.65a43.84,43.84,0,0,1-62.07,0h0a43.82,43.82,0,0,1,0-62.07h0a43.76,43.76,0,0,1,31-12.89,45,45,0,0,1,5.54.36,43.15,43.15,0,0,1,5.08.95h0l.36.09a11,11,0,0,1,8,13v.12l-.11.33a11,11,0,0,1-13.33,7.86h-.05a22.24,22.24,0,0,0-2.69-.51,22.62,22.62,0,0,0-2.78-.17,21.93,21.93,0,1,0,21.93,21.93,22.89,22.89,0,0,0-.17-2.81,21.14,21.14,0,0,0-.51-2.7,11,11,0,0,1,1.17-8.32h0a11,11,0,0,1,6.72-5.06l.37-.09h0a11,11,0,0,1,13,8l.09.36h0a44.33,44.33,0,0,1,1.31,10.64,43.82,43.82,0,0,1-12.88,31Z" transform="translate(44.21 -113.14)"/><path class="cls-5" d="M332.77,453.86a11,11,0,0,1,6.71-5.06h0a11,11,0,0,1,13.38,7.89,43.87,43.87,0,0,1-11.48,42h0a43.9,43.9,0,1,1-62.08-62.08h0a43.82,43.82,0,0,1,31-12.88,45.13,45.13,0,0,1,5.55.36,44.64,44.64,0,0,1,5.42,1,11,11,0,0,1-5.45,21.29,23.38,23.38,0,0,0-2.73-.52h0a22.48,22.48,0,0,0-2.78-.17,21.92,21.92,0,0,0-15.49,37.43h0a21.93,21.93,0,0,0,37.43-15.51,23,23,0,0,0-.17-2.81,20.72,20.72,0,0,0-.52-2.7h0A11,11,0,0,1,332.77,453.86Z" transform="translate(44.21 -113.14)"/><path class="cls-6" d="M219.81,113.14A264.11,264.11,0,1,1,33.12,563.84l0,0a263.56,263.56,0,0,1,0-373.32l0,0a262.9,262.9,0,0,1,186.68-77.33Zm91.14,44.06A237.29,237.29,0,0,0,51.58,208.93h-.05a237.44,237.44,0,0,0,0,336.45h.05A237.91,237.91,0,1,0,310.95,157.2Z" transform="translate(44.21 -113.14)"/></svg>