<svg id="Слой_1" data-name="Слой 1" xmlns="http://www.w3.org/2000/svg" xmlns:xlink="http://www.w3.org/1999/xlink" viewBox="0 0 680.99 670.16"><defs><style>.cls-1,.cls-2,.cls-3,.cls-4,.cls-5,.cls-6,.cls-7{fill-rule:evenodd;}.cls-1{fill:url(#GradientFill_1);}.cls-2{fill:url(#GradientFill_1-2);}.cls-3{fill:url(#GradientFill_1-3);}.cls-4{fill:url(#GradientFill_1-4);}.cls-5{fill:url(#GradientFill_1-5);}.cls-6{fill:url(#GradientFill_1-6);}.cls-7{fill:url(#GradientFill_1-7);}</style><linearGradient id="GradientFill_1" x1="-45.88" y1="669.1" x2="-45.88" y2="605.47" gradientUnits="userSpaceOnUse"><stop offset="0" stop-color="#f7af3d"/><stop offset="1" stop-color="#ffd40d"/></linearGradient><linearGradient id="GradientFill_1-2" x1="40.76" y1="669.1" x2="40.76" y2="605.47" xlink:href="#GradientFill_1"/><linearGradient id="GradientFill_1-3" x1="127.41" y1="669.1" x2="127.41" y2="605.47" xlink:href="#GradientFill_1"/><linearGradient id="GradientFill_1-4" x1="214.06" y1="669.1" x2="214.06" y2="605.47" xlink:href="#GradientFill_1"/><linearGradient id="GradientFill_1-5" x1="-29.64" y1="463.32" x2="-29.64" y2="443.01" xlink:href="#GradientFill_1"/><linearGradient id="GradientFill_1-6" x1="-29.64" y1="495.81" x2="-29.64" y2="475.5" xlink:href="#GradientFill_1"/><linearGradient id="GradientFill_1-7" x1="219.47" y1="712.42" x2="219.47" y2="42.26" xlink:href="#GradientFill_1"/></defs><title>ben8</title><path class="cls-1" d="M-77.69,637.29A31.85,31.85,0,0,0-45.89,669.1a31.85,31.85,0,0,0,31.82-31.81A31.93,31.93,0,0,0-30,609.74a31.8,31.8,0,0,0-15.93-4.27,31.85,31.85,0,0,0-31.81,31.82Zm43.32,0a11.52,11.52,0,0,1-11.51,11.5,11.52,11.52,0,0,1-11.5-11.5,11.52,11.52,0,0,1,11.5-11.51,11.47,11.47,0,0,1,5.75,1.53A11.55,11.55,0,0,1-34.38,637.29Z" transform="translate(121.02 -42.26)"/><path class="cls-2" d="M40.77,669.1A31.81,31.81,0,1,0,9,637.29,31.85,31.85,0,0,0,40.77,669.1Zm0-43.32a11.51,11.51,0,1,1-11.51,11.51A11.5,11.5,0,0,1,40.77,625.78Z" transform="translate(121.02 -42.26)"/><path class="cls-3" d="M127.41,669.1A31.81,31.81,0,1,0,95.6,637.29a31.85,31.85,0,0,0,31.82,31.81Zm0-43.32a11.51,11.51,0,1,1-11.51,11.51A11.48,11.48,0,0,1,127.41,625.78Z" transform="translate(121.02 -42.26)"/><path class="cls-4" d="M214.06,669.1a31.81,31.81,0,1,0-31.82-31.81,31.85,31.85,0,0,0,31.82,31.81Zm0-43.32a11.51,11.51,0,1,1-11.51,11.51A11.48,11.48,0,0,1,214.06,625.78Z" transform="translate(121.02 -42.26)"/><path class="cls-5" d="M-35,463.32h10.83a10.16,10.16,0,0,0,10.15-10.15A10.16,10.16,0,0,0-24.22,443H-35A10.16,10.16,0,0,0-45.2,453.16,10.16,10.16,0,0,0-35,463.32Z" transform="translate(121.02 -42.26)"/><path class="cls-6" d="M-35,495.81h10.83a10.16,10.16,0,0,0,10.15-10.15A10.16,10.16,0,0,0-24.22,475.5H-35A10.16,10.16,0,0,0-45.2,485.65,10.16,10.16,0,0,0-35,495.81Z" transform="translate(121.02 -42.26)"/><path class="cls-7" d="M555.66,393.88,383,67.62a42.61,42.61,0,0,0-74.07-6.89l-.05.07L143.66,281a53.92,53.92,0,0,0-6.93-.45H62.42A53.54,53.54,0,0,0,9,334v65.66H-56.71A31.85,31.85,0,0,0-88.53,431.5v75.82a31.85,31.85,0,0,0,31.82,31.82H30.61v23h-76.5A75.23,75.23,0,0,0-121,637.29a75.22,75.22,0,0,0,75.14,75.14H214.06a75.14,75.14,0,0,0,0-150.28H137.57v-23h87.32A10.15,10.15,0,0,0,235,529V495.81h11.51l.41,0,.63,0,.32,0c.23,0,.46-.06.69-.1l.55-.14.43-.11.32-.12c.2-.07.41-.14.61-.22l.07,0a10.41,10.41,0,0,0,1.66-.9l.38-.28.4-.3.4-.36.32-.3c.1-.09.18-.19.27-.29s.26-.28.38-.43l.13-.16c.16-.2.32-.4.46-.62l.18-.3c.11-.18.23-.36.33-.54a10.15,10.15,0,0,0,1.12-3.44,10.94,10.94,0,0,0,.11-1.4V446.9a96.5,96.5,0,0,0-16.26-53.7l-16.09-24.14L335.91,181.78l164.76,244A32,32,0,0,0,518,440v16.77l-3-7.38a10.14,10.14,0,0,0-13.2-5.63L363.06,499.48l-23.9-19.71a10.15,10.15,0,0,0-12.92,15.67l74.94,61.79A75.12,75.12,0,0,0,477,569l34.55-13.88A42.67,42.67,0,0,0,538,520.7a9.91,9.91,0,0,0,.35-2.56V440a31.78,31.78,0,0,0,17.35-46.1ZM9,518.83H-56.71a11.52,11.52,0,0,1-11.51-11.51V431.5A11.52,11.52,0,0,1-56.71,420H9v98.84Zm495,17.42-34.55,13.88a54.81,54.81,0,0,1-55.32-8.58L380.92,514.2,500,466.37l16.4,40.83A22.37,22.37,0,0,1,504,536.25ZM344,62.57A22.34,22.34,0,0,1,363.51,74,9.74,9.74,0,0,0,364,75.2l.65,1.24a22.15,22.15,0,0,1-1.55,20c-.07.1-.14.2-.2.3l-.42.71A22.33,22.33,0,1,1,344,62.57Zm-130,519.88a54.83,54.83,0,0,1,0,109.66H-45.89a54.89,54.89,0,0,1-54.83-54.83,54.89,54.89,0,0,1,54.83-54.84ZM50.92,562.14v-23h66.34v23Zm163.81-43.32H29.26V334a33.22,33.22,0,0,1,23-31.57V448.3a30.64,30.64,0,0,0,18.17,28,225.42,225.42,0,0,0,92.09,19.54h52.2v23ZM236.4,446.9v28.6H162.54a206.86,206.86,0,0,1-35.8-3.11V334a10.15,10.15,0,1,0-20.31,0V467.73a206.27,206.27,0,0,1-27.73-10,10.3,10.3,0,0,1-6.12-9.41V300.85h64.14a33.11,33.11,0,0,1,27.6,14.77l59.23,88.85A76.28,76.28,0,0,1,236.4,446.9Zm-24.53-96.56-30.65-46a53.5,53.5,0,0,0-17.38-16.42L304.39,100.61A42.71,42.71,0,0,0,344,127.55h.55L211.87,350.34Zm290.21,41.29L347.4,162.5,379.86,108c.28-.44.56-.88.83-1.32L524.42,378.25a31.83,31.83,0,0,0-22.33,13.38Zm26.07,29.72a11.51,11.51,0,1,1,11.5-11.51A11.52,11.52,0,0,1,528.16,421.34Z" transform="translate(121.02 -42.26)"/></svg>