<?xml version="1.0" encoding="UTF-8" standalone="no"?>
<!-- Creator: CorelDRAW X7 -->

<svg
   xmlns:dc="http://purl.org/dc/elements/1.1/"
   xmlns:cc="http://creativecommons.org/ns#"
   xmlns:rdf="http://www.w3.org/1999/02/22-rdf-syntax-ns#"
   xmlns:svg="http://www.w3.org/2000/svg"
   xmlns="http://www.w3.org/2000/svg"
   xmlns:sodipodi="http://sodipodi.sourceforge.net/DTD/sodipodi-0.dtd"
   xmlns:inkscape="http://www.inkscape.org/namespaces/inkscape"
   xml:space="preserve"
   width="66.7057mm"
   height="66.6743mm"
   version="1.1"
   style="shape-rendering:geometricPrecision; text-rendering:geometricPrecision; image-rendering:optimizeQuality; fill-rule:evenodd; clip-rule:evenodd"
   viewBox="0 0 5989 5986"
   id="svg3735"
   sodipodi:docname="mob-callback-w.svg"
   inkscape:version="0.92.4 (5da689c313, 2019-01-14)"><metadata
   id="metadata3739"><rdf:RDF><cc:Work
       rdf:about=""><dc:format>image/svg+xml</dc:format><dc:type
         rdf:resource="http://purl.org/dc/dcmitype/StillImage" /><dc:title></dc:title></cc:Work></rdf:RDF></metadata><sodipodi:namedview
   pagecolor="#ffffff"
   bordercolor="#666666"
   borderopacity="1"
   objecttolerance="10"
   gridtolerance="10"
   guidetolerance="10"
   inkscape:pageopacity="0"
   inkscape:pageshadow="2"
   inkscape:window-width="1920"
   inkscape:window-height="1025"
   id="namedview3737"
   showgrid="false"
   inkscape:zoom="3.396861"
   inkscape:cx="126.05802"
   inkscape:cy="125.99868"
   inkscape:window-x="-8"
   inkscape:window-y="-8"
   inkscape:window-maximized="1"
   inkscape:current-layer="svg3735" />
 <defs
   id="defs3729">
  <style
   type="text/css"
   id="style3727">
   <![CDATA[
    .fil0 {fill:#FDC43B}
   ]]>
  </style>
 </defs>
 <g
   id="Слой_x0020_1">
  <metadata
   id="CorelCorpID_0Corel-Layer" />
  <path
   class="fil0"
   d="M1907 2783c83,475 433,852 807,1087 163,102 267,138 453,197 135,-93 225,-286 506,-282 112,2 572,125 658,179 483,307 142,814 -136,985 -373,230 -1450,-156 -1888,-452 -144,-97 -349,-265 -455,-368 -205,-200 -500,-600 -649,-964 -112,-274 -345,-1045 -206,-1350 44,-98 312,-354 425,-396 520,-192 722,468 757,831 27,275 -143,428 -272,533zm1953 -661c182,183 363,495 349,876l-255 1c-87,-644 -326,-858 -960,-965l-1 -248c346,-49 709,177 867,336zm301 -333c-230,-215 -502,-371 -837,-432 -439,-82 -273,13 -333,-94l-1 -204c310,10 588,70 836,180 621,274 1127,997 1099,1755l-257 -2c-47,-558 -213,-928 -507,-1203zm-4149 1469c137,1554 1506,2876 3247,2714 1549,-144 2878,-1501 2716,-3234 -146,-1563 -1498,-2875 -3231,-2726 -1570,135 -2885,1505 -2732,3246z"
   id="path3732" />
 </g>
<path
   style="fill:#ffffff;stroke-width:0.29438943"
   d="M 114.57683,251.45953 C 89.32271,249.13159 66.904987,240.08229 47.161654,224.24624 42.898506,220.82679 35.268877,213.47441 31.571442,209.22257 18.45212,194.13609 9.0777667,176.4162 4.1837766,157.45299 -4.2133945,124.91567 0.47972523,90.874142 17.303371,62.290055 25.911132,47.665103 38.624233,33.889862 52.948555,23.666824 63.081227,16.4353 76.647123,9.6942957 88.52337,5.9894093 c 33.15368,-10.3425465 68.82395,-6.84090122 98.32607,9.6523827 24.47323,13.681854 43.99626,35.61087 55.02488,61.80604 15.24795,36.216898 13.06917,77.169058 -5.86903,110.313808 -2.57689,4.50995 -7.43913,11.64664 -10.81057,15.86753 -18.65784,23.35876 -45.34946,39.69859 -74.53029,45.62526 -8.82719,1.79282 -13.58837,2.26234 -24.01763,2.36851 -5.1003,0.0519 -10.53178,-0.0216 -12.06997,-0.16341 z m 55.34522,-40.61977 c 4.80108,-0.99125 8.031,-2.79187 12.26607,-6.83812 10.0552,-9.60688 13.15368,-21.56608 7.75258,-29.92264 -0.62082,-0.96052 -1.61849,-2.28847 -2.21705,-2.95101 -1.71465,-1.89791 -5.24185,-4.39692 -7.5721,-5.3648 -2.76719,-1.14937 -11.46064,-3.7158 -17.44204,-5.14913 -4.30787,-1.03231 -5.0623,-1.12846 -8.83169,-1.1256 -3.80962,0.003 -4.2885,0.0664 -6.32937,0.83948 -3.18761,1.20744 -5.63975,2.90855 -9.56792,6.63753 -1.90561,1.80897 -3.75668,3.48033 -4.1135,3.71413 -0.59068,0.38702 -1.04184,0.29169 -5.03846,-1.06463 -10.4724,-3.554 -20.1085,-9.5982 -29.079363,-18.23992 -9.498552,-9.15005 -16.047333,-20.01881 -18.645985,-30.94602 -0.420229,-1.76704 -0.711021,-3.24749 -0.646208,-3.2899 1.148148,-0.75125 5.204396,-4.70454 6.503554,-6.33848 4.348903,-5.46958 5.670494,-11.108084 4.488235,-19.148875 -2.646028,-17.996197 -10.529171,-30.751753 -20.40523,-33.017292 -3.624664,-0.831485 -8.912605,-0.140532 -12.382968,1.618032 -3.510032,1.778669 -10.957298,8.362886 -14.579042,12.889509 -1.022703,1.278219 -2.14158,3.061265 -2.486396,3.962326 -2.547178,6.656184 -1.845053,18.422305 2.034058,34.08654 4.412921,17.81982 9.382638,29.53061 18.052428,42.53927 4.895902,7.34611 10.717053,14.6142 15.689291,19.58913 4.769906,4.77248 13.852221,12.14573 19.984109,16.2236 14.559747,9.6826 40.943117,19.38828 57.847527,21.28043 1.53818,0.17217 3.19412,0.36881 3.67987,0.43698 1.57235,0.22066 9.37331,-0.0765 11.0396,-0.42054 z m 7.26364,-88.53567 c -0.41112,-9.07091 -3.27717,-17.60338 -8.57826,-25.538282 -3.73837,-5.595754 -7.65328,-9.497462 -13.40485,-13.359672 -8.16903,-5.485535 -17.24863,-8.579029 -25.14858,-8.568323 -1.63109,0.0024 -3.28357,0.0891 -3.67219,0.193091 l -0.70658,0.189068 0.17663,5.140219 c 0.0971,2.827119 0.22315,5.186742 0.28001,5.243606 0.0569,0.05686 2.06021,0.510327 4.45189,1.007695 16.26888,3.383268 24.93787,8.92905 30.1385,19.280388 2.12887,4.23732 3.93091,10.1128 4.92083,16.04423 0.25671,1.53818 0.54017,3.161 0.62991,3.60627 l 0.16316,0.80957 h 5.4665 5.4665 z m 30.23704,2.7967 c 0.24295,-1.30046 -0.2907,-9.30599 -0.85455,-12.8195 -2.62172,-16.336472 -10.97196,-32.376978 -23.25045,-44.663233 -4.14697,-4.149599 -7.2368,-6.687875 -12.00779,-9.864331 -11.49321,-7.652012 -25.95892,-12.146711 -42.24925,-13.12744 l -3.3267,-0.200276 0.11317,4.532275 c 0.0622,2.492752 0.23931,4.995939 0.39348,5.562639 0.26833,0.986384 0.34267,1.033492 1.74158,1.103713 2.77917,0.139505 8.83757,1.012602 13.05233,1.881019 13.05309,2.68948 24.43874,8.749066 34.36003,18.286827 12.37872,11.900193 18.30764,25.695757 20.87492,48.572337 l 0.18996,1.69274 h 5.39226 5.39226 z"
   id="path3741"
   inkscape:connector-curvature="0"
   transform="matrix(23.754934,0,0,23.754934,0,-0.09034822)" /></svg>